<svg viewBox="0 0 100 100" fill="none" xmlns="http://www.w3.org/2000/svg">
  <circle cx="50" cy="50" r="48" fill="#0B130D" stroke="#D4AF37" stroke-width="3"/>
  <circle cx="50" cy="50" r="42" stroke="#E5A952" stroke-width="0.75" stroke-dasharray="2, 1.5"/>
  <circle cx="50" cy="50" r="34" stroke="#D4AF37" stroke-width="1.5"/>
  <!-- Central DF -->
  <text x="50" y="32" text-anchor="middle" fill="#E5A952" font-size="9" font-family="serif" font-weight="900" letter-spacing="1">DF</text>
  <!-- Sun & Rays -->
  <circle cx="50" cy="46" r="6" fill="#E5A952" opacity="0.3"/>
  <line x1="50" y1="45" x2="50" y2="36" stroke="#E5A952" stroke-width="0.6"/>
  <line x1="50" y1="45" x2="42" y2="38" stroke="#E5A952" stroke-width="0.6"/>
  <line x1="50" y1="45" x2="58" y2="38" stroke="#E5A952" stroke-width="0.6"/>
  <!-- Mountain Peaks -->
  <path d="M 24,60 L 36,46 L 46,55 L 52,47 L 64,56 L 76,60 Z" fill="#050A06" stroke="#D4AF37" stroke-width="1"/>
  <!-- Wheat / Grain in Foreground -->
  <line x1="50" y1="60" x2="50" y2="82" stroke="#E5A952" stroke-width="1.2"/>
  <ellipse cx="48" cy="65" rx="1.5" ry="1" fill="#E5A952"/>
  <ellipse cx="52" cy="65" rx="1.5" ry="1" fill="#E5A952"/>
  <ellipse cx="48" cy="69" rx="1.5" ry="1" fill="#E5A952"/>
  <ellipse cx="52" cy="69" rx="1.5" ry="1" fill="#E5A952"/>
  <ellipse cx="50" cy="61" rx="1.2" ry="1.8" fill="#E5A952"/>
</svg>
